<svg xmlns="http://www.w3.org/2000/svg" xmlns:xlink="http://www.w3.org/1999/xlink" viewBox="0 0 750.4 772.7"><defs><clipPath id="a"><rect width="750.4" height="772.7" style="fill:none"/></clipPath></defs><g style="clip-path:url(#a)"><path d="M694.4,589.4v26.2c0,14.1-5.4,15.4-17,15.4V573.4c11.6.3,17,2.2,17,16m52.5,160.9V711.9c0-22-6.6-34.6-22.3-41.2,14.2-10.7,22.3-28.1,22.3-55.1V589.4c0-50.7-18.8-68-69.5-68.6H624.8V772.7h52.6V684.2a32,32,0,0,0,5.3-.3c10.4,1.3,12,6,12,17v49.4c0,9.5.3,18.6,3.1,22.4h52.6c-3.1-3.8-3.5-12.9-3.5-22.4M618.5,573.4V520.8H525.6V772.7h92.9V720.1H578.2V672.9h40.3V620.6H578.2V573.4ZM518.3,520.8H403.1v52.6h31.5V772.7h52.2V573.4h31.5Zm-122.1,0H280.9v52.6h31.5V772.7h52.3V573.4h31.5ZM221.1,680.1l6.3-97.6,5.9,97.6Zm18.2,92.6h52.6l-29-251.9H191.5l-29,251.9h52.6l2.5-40.3h19.2ZM106.1,520.8,79.4,653,52.6,520.8H0V772.7H52.6V677.9L68,772.7H90.7l15.4-94.8v94.8h52.6V520.8Z"/><path d="M467,361.8c-17.3-13.2-24.6-19.2-24.6-35.9,0-8.8,1-14.5,6.3-14.5s7.3,5.7,7.3,26.1h52.2c0-54.4-18.8-78.7-59.5-78.7s-58.9,24.3-58.9,67.1c0,49.7,25.6,63.9,48.5,82.8,19.9,16.7,21.1,23.3,21.1,38.4,0,11.4-.3,17.3-7.2,17.3s-9.1-5-9.1-38.7H390.5c0,74.3,20.1,91.3,61.7,91.3S512,492.5,512,447.1c0-47.8-18.6-65.2-45-85.3m-84.4-47.2V262H289.7V513.9h92.9V461.3H342.3V414.1h40.3V361.8H342.3V314.6ZM233,262,221.1,452.2,208.8,262H156.2l29,251.9h71.4l29-251.9ZM99.8,513.9h52.6V262H99.8ZM52.6,461.3V262H0V513.9H92.9V461.3Z"/><path d="M615,3.1H560.8l-21.7,126,21.7,126H615l-24.2-126Zm-128.5,252h52.6V3.1H486.5ZM427.6,105.5h52.6V72.4c0-50.7-22-72.4-60.8-72.4s-60.7,21.7-60.7,72.4V185.8c0,50.7,22,72.4,60.7,72.4s60.8-21.7,60.8-72.4V152.7H427.6v29c0,18.9-.3,23.9-8.2,23.9s-8.1-5-8.1-23.9V76.5c0-18.9.3-23.9,8.1-23.9s8.2,5,8.2,23.9Zm-140.4,57,6.3-97.6,6,97.6Zm18.3,92.6H358L329.1,3.1H257.6l-29,252h52.6l2.5-40.3h19.2ZM181.1,202.5V3.1H128.5v252h92.9V202.5Zm-128.5,0V152.7c12.6.3,17,2.2,17,16.4v16.4c0,13.8-5.4,16.7-17,17M67.1,74v7.9c0,14.5-.7,17.9-14.5,18.2V55.7c12.3.7,14.5,4.1,14.5,18.3m28,49.1c14.2-7.2,24.6-21.1,24.6-48.5V74c0-51.3-14.2-70.2-67.1-70.9H0v252H52.6c51.6-1,69.6-20.2,69.6-65.8v-13c0-29.6-11.7-45-27.1-53.2"/></g></svg>