<svg xmlns="http://www.w3.org/2000/svg" viewBox="0 0 574.3 31.6"><path d="M24.2,2.4A16.7,16.7,0,0,0,20.7.6,11.5,11.5,0,0,0,17,0a13.2,13.2,0,0,0-6.4,1.6A17.2,17.2,0,0,0,5.1,5.8a22.1,22.1,0,0,0-3.7,6.1A19.8,19.8,0,0,0,0,19.2a16,16,0,0,0,.8,5.1,12,12,0,0,0,2.3,4,10.3,10.3,0,0,0,3.7,2.4,12.6,12.6,0,0,0,4.9.9,12.2,12.2,0,0,0,3.4-.4,12.3,12.3,0,0,0,3.1-1.4,20.5,20.5,0,0,0,2.7-2.5,32.2,32.2,0,0,0,2.8-3.7l-1.5-.9a17.9,17.9,0,0,1-4.4,4.9,9.5,9.5,0,0,1-5.2,1.5q-7.8,0-7.8-9.9a24.1,24.1,0,0,1,1-6.7A18.6,18.6,0,0,1,8.4,7a15,15,0,0,1,4-3.6,9.5,9.5,0,0,1,4.9-1.3c2.1,0,3.6.6,4.6,2s1.7,3.4,1.9,6.3h1.5L27.2.4H25.7Z" style="fill:#ffffff"/><path d="M54.5,3.4A9,9,0,0,0,51,.9,11.4,11.4,0,0,0,46.4,0a15.2,15.2,0,0,0-6.6,1.5,20.6,20.6,0,0,0-5.5,4.2,18.8,18.8,0,0,0-3.7,6.1,17.9,17.9,0,0,0-1.4,7.3,13.7,13.7,0,0,0,.8,5.1,11.8,11.8,0,0,0,2.2,4,10.1,10.1,0,0,0,3.6,2.5,11.4,11.4,0,0,0,4.6.9A15.2,15.2,0,0,0,47,30.1a20,20,0,0,0,9.2-10.3,20.7,20.7,0,0,0,1.4-7.4,16,16,0,0,0-.8-5.1A10.9,10.9,0,0,0,54.5,3.4ZM51.8,18.6a18.5,18.5,0,0,1-2.4,5.7,13.4,13.4,0,0,1-3.7,3.8A8.8,8.8,0,0,1,41,29.4a5.9,5.9,0,0,1-5.2-2.5c-1.2-1.7-1.8-4.3-1.8-7.7a20.9,20.9,0,0,1,1-6.7A18.6,18.6,0,0,1,37.6,7a13.3,13.3,0,0,1,3.9-3.6,9.5,9.5,0,0,1,4.9-1.3,5.3,5.3,0,0,1,4.8,2.2c1,1.5,1.5,3.9,1.5,7.1A27.3,27.3,0,0,1,51.8,18.6Z" style="fill:#ffffff"/><path d="M84.1,2a3.7,3.7,0,0,1,2.4,1,3.6,3.6,0,0,1,.9,2.6,4.4,4.4,0,0,1-.2,1.5L83,23.3h-.2L72.8.4H63.4L63,2a8.7,8.7,0,0,1,4.2,1,3.1,3.1,0,0,1,1.6,2.9,4.9,4.9,0,0,1-.1,1.2L64,24.9a7.5,7.5,0,0,1-2.1,3.4,4.8,4.8,0,0,1-3.3,1.3l-.5,1.6H69.6l.4-1.6a4.1,4.1,0,0,1-2.8-.9,3.2,3.2,0,0,1-1-2.5,5.5,5.5,0,0,1,.3-1.7L71,7.1h.2L81.7,31.2h1.6L89.8,6.7a7.3,7.3,0,0,1,.7-1.9l1.1-1.5a3.8,3.8,0,0,1,1.3-.9A2.8,2.8,0,0,1,94.4,2L94.8.4H84.6Z" style="fill:#ffffff"/><path d="M125,8.9l.8-8.5H99.1L95.3,8.9h1.6a14.1,14.1,0,0,1,4.3-5,10.2,10.2,0,0,1,6.1-1.8,2.2,2.2,0,0,1,1.7.5,2.3,2.3,0,0,1,.5,1.6,7.5,7.5,0,0,1-.4,2.4l-4.9,18.3a17.2,17.2,0,0,1-.9,2.5,3.3,3.3,0,0,1-1.2,1.4,4.4,4.4,0,0,1-1.6.6l-2.1.2L98,31.2h13.9l.5-1.6a9.8,9.8,0,0,1-3.6-.5,1.9,1.9,0,0,1-1-1.8,5,5,0,0,1,.2-1.2c.1-.5.3-1,.4-1.6l4.8-17.7a24.6,24.6,0,0,1,.7-2.4,3.9,3.9,0,0,1,1-1.4,3.7,3.7,0,0,1,1.2-.7,4.7,4.7,0,0,1,1.7-.2,5.8,5.8,0,0,1,4.3,1.5c.9,1,1.4,2.8,1.4,5.3Z" style="fill:#ffffff"/><path d="M142.4,2l.4-1.6h-13L129.4,2a11.4,11.4,0,0,1,3.1.3,1.6,1.6,0,0,1,.9,1.6,14.5,14.5,0,0,1-.6,3.3l-4.7,17.7a15.4,15.4,0,0,1-.9,2.4,3.9,3.9,0,0,1-1,1.4,2.6,2.6,0,0,1-1.5.7l-2,.2-.5,1.6H135l.5-1.6a6.3,6.3,0,0,1-2.8-.5,1.8,1.8,0,0,1-.9-1.8,12.8,12.8,0,0,1,.5-2.8l4.2-15.9c.4-1.4.7-2.5,1-3.4a11.7,11.7,0,0,1,1.2-2,2.9,2.9,0,0,1,1.5-.9A6.9,6.9,0,0,1,142.4,2Z" style="fill:#ffffff"/><path d="M165.8,2a3.3,3.3,0,0,1,2.3,1,3.3,3.3,0,0,1,1,2.6,4.4,4.4,0,0,1-.2,1.5l-4.2,16.2h-.2L154.5.4h-9.4L144.6,2a8.8,8.8,0,0,1,4.3,1,3.1,3.1,0,0,1,1.6,2.9,4.9,4.9,0,0,1-.1,1.2l-4.8,17.8a6.6,6.6,0,0,1-2,3.4,4.8,4.8,0,0,1-3.4,1.3l-.4,1.6h11.4l.5-1.6a4.1,4.1,0,0,1-2.8-.9,3.2,3.2,0,0,1-1-2.5,5.5,5.5,0,0,1,.3-1.7l4.5-17.4h.2l10.5,24.1H165l6.4-24.5a15.4,15.4,0,0,1,.8-1.9l1-1.5a4.2,4.2,0,0,1,1.4-.9A2.3,2.3,0,0,1,176,2l.5-1.6H166.2Z" style="fill:#ffffff"/><path d="M206.7,2.2l1.7-.2.4-1.6H198.3L197.8,2a9.8,9.8,0,0,1,3,.6,1.8,1.8,0,0,1,1.1,1.8c0,.5-.1,1.3-.2,2.4s-.5,2.5-.8,4-.6,2.9-1,4.5-.8,3-1.2,4.3a35.3,35.3,0,0,1-1.5,3.9,14.1,14.1,0,0,1-2.1,3.1,9.5,9.5,0,0,1-2.8,2,7.8,7.8,0,0,1-3.5.8,6.2,6.2,0,0,1-4.8-1.9,7.6,7.6,0,0,1-1.6-5.1,10.9,10.9,0,0,1,.1-1.8,17.7,17.7,0,0,1,.4-2l2.6-10c.4-1.4.7-2.6,1-3.5a6.2,6.2,0,0,1,1.1-2,3.8,3.8,0,0,1,1.5-.9l2.3-.2.5-1.6H179.1L178.6,2a6.2,6.2,0,0,1,2.9.5,1.8,1.8,0,0,1,.9,1.7,11.5,11.5,0,0,1-.2,1.4,7.5,7.5,0,0,1-.4,1.6l-2.6,9.9a15.7,15.7,0,0,0-.6,2.8,21.1,21.1,0,0,0-.2,2.5c0,3,.8,5.2,2.5,6.8s4.2,2.4,7.6,2.4a10.7,10.7,0,0,0,8.6-4.1q3.5-4,5.1-12l1.8-8c.2-1.2.5-2.1.7-2.9a4.8,4.8,0,0,1,.9-1.6A2.1,2.1,0,0,1,206.7,2.2Z" style="fill:#ffffff"/><path d="M212.1,2a7.6,7.6,0,0,1,3.1.4,1.7,1.7,0,0,1,.9,1.7,6.2,6.2,0,0,1-.1,1.3c-.1.5-.3,1.1-.4,1.8l-4.7,17.7a21.9,21.9,0,0,1-.7,2.3,5.6,5.6,0,0,1-1,1.5,3.5,3.5,0,0,1-1.5.7l-2.1.2-.5,1.6H230l3.2-8.4h-1.9a21.3,21.3,0,0,1-1.8,3.1,7.3,7.3,0,0,1-2.2,2.1,8.2,8.2,0,0,1-3,1.1,15.1,15.1,0,0,1-3.9.4,10.7,10.7,0,0,1-4.4-.7,2.3,2.3,0,0,1-1.3-2.2,10.3,10.3,0,0,1,.3-2.2l2.3-8.6h3a3.2,3.2,0,0,1,2.5.8,3.8,3.8,0,0,1,.7,2.6,16.2,16.2,0,0,1-.1,2.1H225l2.4-11.8h-1.5a16.1,16.1,0,0,1-1.2,2.3,4.7,4.7,0,0,1-1.1,1.3,2.7,2.7,0,0,1-1.4.7,5,5,0,0,1-1.8.2h-2.6L221,2.2h5.2l2.2.2a6.9,6.9,0,0,1,1.9,1,7.2,7.2,0,0,1,1.4,1.9,27.6,27.6,0,0,1,1.2,3.2h1.5V.4H212.6Z" style="fill:#ffffff"/><path d="M248.8,8.9h1.6a13.2,13.2,0,0,1,4.3-5,10.2,10.2,0,0,1,6.1-1.8,1.9,1.9,0,0,1,1.6.5,2,2,0,0,1,.6,1.6,12,12,0,0,1-.4,2.4l-4.9,18.3a17.2,17.2,0,0,1-.9,2.5,5.8,5.8,0,0,1-1.2,1.4,4.4,4.4,0,0,1-1.6.6l-2.1.2-.4,1.6h13.9l.5-1.6a9.8,9.8,0,0,1-3.6-.5,1.9,1.9,0,0,1-1-1.8,2.5,2.5,0,0,1,.2-1.2c.1-.5.3-1,.4-1.6l4.7-17.7a22.3,22.3,0,0,1,.8-2.4,3.9,3.9,0,0,1,1-1.4,2.9,2.9,0,0,1,1.2-.7,4.7,4.7,0,0,1,1.7-.2,5.4,5.4,0,0,1,4.2,1.5c1,1,1.5,2.8,1.5,5.3h1.5l.8-8.5H252.6Z" style="fill:#ffffff"/><path d="M305.2,3.4A10.7,10.7,0,0,0,301.7.9,11.9,11.9,0,0,0,297,0a14.7,14.7,0,0,0-6.5,1.5,19.6,19.6,0,0,0-9.3,10.3,19.8,19.8,0,0,0-1.4,7.3,16,16,0,0,0,.8,5.1,10.5,10.5,0,0,0,2.3,4,10.7,10.7,0,0,0,3.5,2.5,11.9,11.9,0,0,0,4.7.9,14.4,14.4,0,0,0,6.5-1.5,20.6,20.6,0,0,0,5.5-4.2,19.9,19.9,0,0,0,3.7-6.1,20.7,20.7,0,0,0,1.4-7.4,16,16,0,0,0-.8-5.1A10.7,10.7,0,0,0,305.2,3.4Zm-2.7,15.2a18.6,18.6,0,0,1-2.5,5.7,12.2,12.2,0,0,1-3.7,3.8,8.5,8.5,0,0,1-4.7,1.3,5.9,5.9,0,0,1-5.2-2.5c-1.2-1.7-1.8-4.3-1.8-7.7a24.1,24.1,0,0,1,1-6.7A18.6,18.6,0,0,1,288.2,7a15,15,0,0,1,4-3.6A9.1,9.1,0,0,1,297,2.1a5.3,5.3,0,0,1,4.8,2.2c1,1.5,1.6,3.9,1.6,7.1A27.3,27.3,0,0,1,302.5,18.6Z" style="fill:#ffffff"/><path d="M364.5,3.5l2.1-1.2a6.9,6.9,0,0,1,2-.3L369,.4H358.6L358.2,2l1.9.2a.7.7,0,0,1,.6.7,4.4,4.4,0,0,1-1,2.2l-3.2,4.3L344.2,25.1H344l4-18,.7-2.7a9.9,9.9,0,0,1,.9-1.5,2.1,2.1,0,0,1,1.3-.7l1.9-.2.4-1.6H341.8L341.4,2a5.4,5.4,0,0,1,2.6.4,1.7,1.7,0,0,1,.7,1.6,16.5,16.5,0,0,1-.5,3l-.2.7L330.5,25.1h-.2l4.1-18a10.5,10.5,0,0,1,.7-2.6,4.8,4.8,0,0,1,.8-1.6,1.7,1.7,0,0,1,1-.7l1.4-.2.4-1.6h-11L327.3,2a6.6,6.6,0,0,1,2.9.4A1.7,1.7,0,0,1,331,4a16.5,16.5,0,0,1-.5,3L325,31.6h3.3L343,12.5l-4.4,19.1H342l16.8-22A45.1,45.1,0,0,1,362,5.9,18.2,18.2,0,0,1,364.5,3.5Z" style="fill:#ffffff"/><path d="M369.2,2a7.4,7.4,0,0,1,3,.4,1.6,1.6,0,0,1,1,1.7,6.9,6.9,0,0,1-.2,1.3c-.1.5-.2,1.1-.4,1.8L368,24.9a19.9,19.9,0,0,1-.8,2.3,5.6,5.6,0,0,1-1,1.5,3.1,3.1,0,0,1-1.4.7l-2.2.2-.4,1.6h24.9l3.1-8.4h-1.9a11.5,11.5,0,0,1-1.8,3.1,6.3,6.3,0,0,1-2.2,2.1,8.3,8.3,0,0,1-2.9,1.1,16.4,16.4,0,0,1-4,.4,11.1,11.1,0,0,1-4.4-.7,2.3,2.3,0,0,1-1.3-2.2,6.9,6.9,0,0,1,.4-2.2l2.3-8.6h3a3.4,3.4,0,0,1,2.5.8,4.5,4.5,0,0,1,.7,2.6,18.3,18.3,0,0,1-.2,2.1H382l2.4-11.8H383l-1.2,2.3a7.7,7.7,0,0,1-1.2,1.3,2.7,2.7,0,0,1-1.4.7,5,5,0,0,1-1.8.2h-2.5L378,2.2h5.2l2.3.2a6.4,6.4,0,0,1,1.8,1,10.5,10.5,0,0,1,1.5,1.9,16.9,16.9,0,0,1,1.1,3.2h1.5V.4H369.6Z" style="fill:#ffffff"/><path d="M416.9,1.8A11.7,11.7,0,0,0,413.6.7a20.7,20.7,0,0,0-3.5-.3H399.4L399,2a6.3,6.3,0,0,1,2.8.5,2,2,0,0,1,.8,1.9,11.6,11.6,0,0,1-.4,2.8l-4.7,17.6a13.7,13.7,0,0,1-.9,2.5,4.4,4.4,0,0,1-1,1.5,3.4,3.4,0,0,1-1.5.6l-2,.2-.5,1.6h14.7a21,21,0,0,0,5.1-.6,13.2,13.2,0,0,0,4-1.8A7.7,7.7,0,0,0,418,26a7.5,7.5,0,0,0,1-3.6,7,7,0,0,0-1.9-4.9,10.6,10.6,0,0,0-5.3-2.6h0l2.9-.7a8.4,8.4,0,0,0,2.7-1.3,7,7,0,0,0,2-2.2,5.8,5.8,0,0,0,.8-3.3,5.9,5.9,0,0,0-.9-3.4A6.1,6.1,0,0,0,416.9,1.8Zm-4.6,15.4a5,5,0,0,1,2,4.4,7.5,7.5,0,0,1-.6,3.1,7.9,7.9,0,0,1-1.9,2.5,8.1,8.1,0,0,1-2.9,1.6,12.3,12.3,0,0,1-3.9.6h-1.3a2.1,2.1,0,0,1-1.2-.3,2.2,2.2,0,0,1-.9-.7,1.8,1.8,0,0,1-.4-1.3,3.4,3.4,0,0,1,.1-.9c.1-.4.1-.8.2-1.1l.3-1.2a2.9,2.9,0,0,0,.2-.9l2-7.1h2.3A10.6,10.6,0,0,1,412.3,17.2Zm3.1-7.4a6,6,0,0,1-1.8,2.1,6.9,6.9,0,0,1-2.7,1.4,12.1,12.1,0,0,1-3.4.5h-3l2.3-8.4a5.8,5.8,0,0,1,1.1-2.5,2.1,2.1,0,0,1,1.7-.7c2.3,0,4,.4,4.9,1.2A4.3,4.3,0,0,1,416,7.1,6,6,0,0,1,415.4,9.8Z" style="fill:#ffffff"/><path d="M433.6,3.4a4,4,0,0,1,1.8-1,7.8,7.8,0,0,1,2.2-.4,4.7,4.7,0,0,1,3.8,1.6c.8,1.1,1.2,2.9,1.3,5.3h1.4L445.8,1h-1.2l-.8,1.7A10.6,10.6,0,0,0,440.9.6a9,9,0,0,0-3.4-.6,9.4,9.4,0,0,0-3.7.7,11.1,11.1,0,0,0-3,1.7,10.5,10.5,0,0,0-2,2.7,7.1,7.1,0,0,0-.7,3.2,7.3,7.3,0,0,0,.8,3.3,17.1,17.1,0,0,0,2.1,2.6,19.9,19.9,0,0,0,2.7,2.2,19.9,19.9,0,0,1,2.7,2.2,7.9,7.9,0,0,1,2.1,2.4,4.8,4.8,0,0,1,.9,2.9,5.1,5.1,0,0,1-.5,2.2,6.2,6.2,0,0,1-1.4,1.8,7.2,7.2,0,0,1-2.1,1.2,10.1,10.1,0,0,1-2.6.4,5.9,5.9,0,0,1-4.9-2.2c-1.2-1.4-1.8-3.5-2-6.3h-1.3l-1.7,10.2h1.4l.8-3a10.3,10.3,0,0,0,7.7,3.4,10.1,10.1,0,0,0,3.9-.8,11.6,11.6,0,0,0,3.2-2,9.3,9.3,0,0,0,2.2-3.1,8.5,8.5,0,0,0,.8-3.9,6.7,6.7,0,0,0-.8-3.5,10.5,10.5,0,0,0-2-2.7,17.8,17.8,0,0,0-2.6-2.2l-2.7-2a12.9,12.9,0,0,1-2-2.1,4.7,4.7,0,0,1-.8-2.6,3.7,3.7,0,0,1,.4-1.8A4.4,4.4,0,0,1,433.6,3.4Z" style="fill:#ffffff"/><path d="M452.2,2a11.4,11.4,0,0,1,3.1.3,1.6,1.6,0,0,1,.9,1.6,14.5,14.5,0,0,1-.6,3.3l-4.7,17.7a15.4,15.4,0,0,1-.9,2.4,3.9,3.9,0,0,1-1,1.4,2.6,2.6,0,0,1-1.5.7l-2,.2-.5,1.6h12.8l.5-1.6a6.3,6.3,0,0,1-2.8-.5,1.8,1.8,0,0,1-.9-1.8,12.8,12.8,0,0,1,.5-2.8l4.2-15.9c.4-1.4.7-2.5,1-3.4a11.7,11.7,0,0,1,1.2-2,2.9,2.9,0,0,1,1.5-.9,6.9,6.9,0,0,1,2.2-.3l.4-1.6h-13Z" style="fill:#ffffff"/><path d="M495.8,8.9l.8-8.5H469.9l-3.8,8.5h1.6a14.1,14.1,0,0,1,4.3-5,10.2,10.2,0,0,1,6.1-1.8,2.2,2.2,0,0,1,1.7.5,2.3,2.3,0,0,1,.5,1.6,7.5,7.5,0,0,1-.4,2.4L475,24.9a17.2,17.2,0,0,1-.9,2.5,3.3,3.3,0,0,1-1.2,1.4,4.4,4.4,0,0,1-1.6.6l-2.1.2-.4,1.6h13.9l.5-1.6a9.8,9.8,0,0,1-3.6-.5,1.9,1.9,0,0,1-1-1.8,5,5,0,0,1,.2-1.2c.1-.5.3-1,.4-1.6L484,6.8a24.6,24.6,0,0,1,.7-2.4,3.9,3.9,0,0,1,1-1.4,3.7,3.7,0,0,1,1.2-.7,4.7,4.7,0,0,1,1.7-.2,5.8,5.8,0,0,1,4.3,1.5c.9,1,1.4,2.8,1.4,5.3Z" style="fill:#ffffff"/><path d="M500.1,2a7.6,7.6,0,0,1,3.1.4,1.7,1.7,0,0,1,.9,1.7,6.2,6.2,0,0,1-.1,1.3c-.1.5-.3,1.1-.4,1.8l-4.7,17.7a21.9,21.9,0,0,1-.7,2.3,5.6,5.6,0,0,1-1,1.5,3.5,3.5,0,0,1-1.5.7l-2.1.2-.5,1.6H518l3.2-8.4h-1.9a21.3,21.3,0,0,1-1.8,3.1,7.3,7.3,0,0,1-2.2,2.1,8.2,8.2,0,0,1-3,1.1,15.1,15.1,0,0,1-3.9.4,10.7,10.7,0,0,1-4.4-.7,2.3,2.3,0,0,1-1.3-2.2,10.3,10.3,0,0,1,.3-2.2l2.3-8.6h3a3.2,3.2,0,0,1,2.5.8,3.8,3.8,0,0,1,.7,2.6,16.2,16.2,0,0,1-.1,2.1H513l2.4-11.8h-1.5a16.1,16.1,0,0,1-1.2,2.3,4.7,4.7,0,0,1-1.1,1.3,2.7,2.7,0,0,1-1.4.7,5,5,0,0,1-1.8.2h-2.6L509,2.2h5.2l2.2.2a6.9,6.9,0,0,1,1.9,1,7.2,7.2,0,0,1,1.4,1.9,27.6,27.6,0,0,1,1.2,3.2h1.5V.4H500.6Z" style="fill:#ffffff"/><path d="M568.1,14.9l-5.8-2.3h-.2l1.9,3.1H527.6v1H564l-1.9,3.1h.2l5.8-2.4,6.2-1.3Z" style="fill:#ffffff"/></svg>