<svg xmlns="http://www.w3.org/2000/svg" viewBox="0 0 598.6 33.5"><path d="M28.9,24.5c-.1,0-.2,0-.2.1-1.6,5.4-5.1,8.2-10.6,8.2a13.9,13.9,0,0,1-7.4-2.2,16.4,16.4,0,0,1-5.5-5.9,16.8,16.8,0,0,1-2-7.9A16.6,16.6,0,0,1,5,8.8a13.3,13.3,0,0,1,5.2-5.3A15,15,0,0,1,18,1.6a10.3,10.3,0,0,1,6.7,2.1,11.5,11.5,0,0,1,3.6,6.2l.4.2.2-.2-.6-5.7c0-.5,0-.7-.1-.8s-.2-.2-.4-.3a17.3,17.3,0,0,0-4.4-1.7A26.1,26.1,0,0,0,18,.9a21.2,21.2,0,0,0-9.3,2A15.2,15.2,0,0,0,2.3,8.5,15.4,15.4,0,0,0,0,16.8a16.6,16.6,0,0,0,2.3,8.7,15.9,15.9,0,0,0,6.4,5.9A19.9,19.9,0,0,0,18,33.5a21.2,21.2,0,0,0,5.4-.6A17.7,17.7,0,0,0,28.3,31c.2-.1.4-.2.4-.3a1.3,1.3,0,0,0,.2-.8l.4-5.3C29.3,24.5,29.2,24.5,28.9,24.5Z" style="fill:#ffffff;"/><path d="M60.5,3.1A15.5,15.5,0,0,0,52.1.9a19,19,0,0,0-8.3,1.9,15,15,0,0,0-6.7,5.5,14.6,14.6,0,0,0-2.6,8.9,17.3,17.3,0,0,0,1.9,8.1,14.7,14.7,0,0,0,5.7,5.9,15.1,15.1,0,0,0,8.3,2.2,17.6,17.6,0,0,0,8.7-2.2,18.7,18.7,0,0,0,6.5-6A15.7,15.7,0,0,0,68,16.8,16.8,16.8,0,0,0,66,9,15.6,15.6,0,0,0,60.5,3.1Zm2.6,22.8a11.6,11.6,0,0,1-4.5,4.8,12.8,12.8,0,0,1-6.4,1.7,13.4,13.4,0,0,1-7.6-2.3A14.6,14.6,0,0,1,39.5,24a20.1,20.1,0,0,1-1.8-8.6c0-4.1,1.1-7.4,3.2-9.8S46.1,2,50,2a14.7,14.7,0,0,1,7.8,2.1,12.9,12.9,0,0,1,5.1,5.7,19.2,19.2,0,0,1,1.8,8.4A16.8,16.8,0,0,1,63.1,25.9Z" style="fill:#ffffff;"/><path d="M105.5,1.5H96.7a.4.4,0,0,0-.1.3.4.4,0,0,0,.1.3,3.6,3.6,0,0,1,3,1,6.4,6.4,0,0,1,.8,3.6v22L80.6,4.1,79.4,2.4c-.2-.4-.3-.7-.5-.8H72.7c-.1,0-.1.1-.1.3s0,.3.1.3a5.3,5.3,0,0,1,3.6,1.5v24c0,1.7-.2,2.9-.8,3.6s-1.5,1-2.9,1-.1.1-.1.3,0,.3.1.3h8.6c.1,0,.2-.1.2-.3s-.1-.3-.2-.3a3.5,3.5,0,0,1-2.9-1,5.6,5.6,0,0,1-.9-3.6V4.6l.9,1L101,33.5h.6V6.7a6.4,6.4,0,0,1,.8-3.6,3.9,3.9,0,0,1,3.1-1c.1,0,.1-.1.1-.3S105.6,1.5,105.5,1.5Z" style="fill:#ffffff;"/><path d="M136.4,0l-.3.2a1.6,1.6,0,0,1-1.1,1,8.4,8.4,0,0,1-2.6.3H112.6c-1.8,0-2.7-.4-2.7-1.1a.3.3,0,1,0-.6,0,39.7,39.7,0,0,1-.2,4.4c-.2,2-.3,3.5-.5,4.4h.6c.4-2.6,1-4.4,2-5.4a6.2,6.2,0,0,1,4.6-1.5l3.7.2a2.1,2.1,0,0,1,1.5.7,5.9,5.9,0,0,1,.4,2.3V28.7A6.3,6.3,0,0,1,121,31a1.8,1.8,0,0,1-1.4.9,13.1,13.1,0,0,1-3.3.3c-.1,0-.1.1-.1.3s0,.3.1.3h12.8c.1,0,.1-.1.1-.3s0-.3-.1-.3a13.1,13.1,0,0,1-3.3-.3,1.8,1.8,0,0,1-1.4-.9,6.3,6.3,0,0,1-.3-2.3V5.6a4.3,4.3,0,0,1,.4-2.3,1.8,1.8,0,0,1,1.4-.8l3.6-.2a7.6,7.6,0,0,1,3.7.7,3.6,3.6,0,0,1,1.9,2.1,13.7,13.7,0,0,1,.5,4.1h.6c0-1.2.1-2.8.2-4.7s.2-3.4.3-4.3S136.6,0,136.4,0Z" style="fill:#ffffff;"/><path d="M148.4,3.4a1.9,1.9,0,0,1,1.3-1,10.2,10.2,0,0,1,2.9-.3.4.4,0,0,0,.1-.3.4.4,0,0,0-.1-.3H140.9c-.1,0-.2.1-.2.3s.1.3.2.3a11.5,11.5,0,0,1,2.9.2,1.8,1.8,0,0,1,1.2,1,4.3,4.3,0,0,1,.4,2.2V28.7A4.7,4.7,0,0,1,145,31a1.4,1.4,0,0,1-1.2.9,10.7,10.7,0,0,1-2.9.3c-.1,0-.2.1-.2.3s.1.3.2.3h11.7a.5.5,0,0,0,0-.6,9.7,9.7,0,0,1-2.9-.3,1.6,1.6,0,0,1-1.3-.9,6.3,6.3,0,0,1-.3-2.3V5.6A6.1,6.1,0,0,1,148.4,3.4Z" style="fill:#ffffff;"/><path d="M190.1,1.5h-8.7c-.1,0-.1.1-.1.3s0,.3.1.3a3.5,3.5,0,0,1,2.9,1,6.4,6.4,0,0,1,.8,3.6v22L165.3,4.1a8.8,8.8,0,0,1-1.2-1.7,1.8,1.8,0,0,0-.6-.8h-6.2c-.1,0-.1.1-.1.3s0,.3.1.3a5.3,5.3,0,0,1,3.6,1.5v24c0,1.7-.2,2.9-.8,3.6s-1.5,1-2.9,1-.1.1-.1.3,0,.3.1.3h8.7c.1,0,.1-.1.1-.3s0-.3-.1-.3a3.8,3.8,0,0,1-3-1,5.6,5.6,0,0,1-.9-3.6V4.6l.9,1,22.7,27.9h.6V6.7a6.4,6.4,0,0,1,.8-3.6,3.9,3.9,0,0,1,3.1-1c.1,0,.1-.1.1-.3S190.2,1.5,190.1,1.5Z" style="fill:#ffffff;"/><path d="M225.1,1.5h-9.3c-.1,0-.1.1-.1.3s0,.3.1.3,2.6.3,3.2,1.1a4.9,4.9,0,0,1,1.1,3.5V21.1a11.7,11.7,0,0,1-2.6,8,9.1,9.1,0,0,1-7.1,2.9,9.7,9.7,0,0,1-7.7-3.2c-1.9-2.1-2.8-5.1-2.8-9V5.6a6.1,6.1,0,0,1,.3-2.2,2.2,2.2,0,0,1,1.3-1,9.4,9.4,0,0,1,2.8-.3c.1,0,.2-.1.2-.3s-.1-.3-.2-.3H192.8c-.1,0-.1.1-.1.3s0,.3.1.3a11.1,11.1,0,0,1,2.9.2,1.8,1.8,0,0,1,1.2,1,5.7,5.7,0,0,1,.4,2.2v16a12.8,12.8,0,0,0,1.5,6.3A10.6,10.6,0,0,0,203,32a13.6,13.6,0,0,0,6.5,1.5,11.1,11.1,0,0,0,8.5-3.3c2.1-2.2,3.2-5.2,3.2-9.1V6.7a5.4,5.4,0,0,1,.9-3.5,3.7,3.7,0,0,1,3-1.1c.1,0,.1-.1.1-.3S225.2,1.5,225.1,1.5Z" style="fill:#ffffff;"/><path d="M250.2,25.4c-.2-.1-.3,0-.3.1a10.1,10.1,0,0,1-1.8,4.6,4.3,4.3,0,0,1-3.5,1.7H240a10.2,10.2,0,0,1-2.8-.2,1.9,1.9,0,0,1-1.2-.9,6.1,6.1,0,0,1-.3-2.2V17h6.4a5,5,0,0,1,3.4.9,4.2,4.2,0,0,1,1,3.1c0,.1.1.1.3.1s.3,0,.3-.1V12.5h-.6a3.4,3.4,0,0,1-.9,2.7,5.1,5.1,0,0,1-3.2.8h-6.6V5.8a6.1,6.1,0,0,1,.3-2.2,1.4,1.4,0,0,1,1.2-.9,9.9,9.9,0,0,1,2.8-.3h3.5a4.6,4.6,0,0,1,3.6,1.5A5.9,5.9,0,0,1,248.4,8h.6V1.9c0-.3-.2-.4-.5-.4H228.5a.4.4,0,0,0-.1.3.4.4,0,0,0,.1.3,10.7,10.7,0,0,1,2.9.2,1.7,1.7,0,0,1,1.3,1,6.1,6.1,0,0,1,.3,2.2V28.7a6.7,6.7,0,0,1-.3,2.3,1.5,1.5,0,0,1-1.3.9,9.7,9.7,0,0,1-2.9.3.5.5,0,0,0,0,.6h20.8l.6-.2a.8.8,0,0,0,.2-.6,46.3,46.3,0,0,1,.4-6.5C250.5,25.4,250.4,25.4,250.2,25.4Z" style="fill:#ffffff;"/><path d="M294.5,0l-.4.2c-.1.5-.5.8-1.1,1a7.9,7.9,0,0,1-2.6.3H270.6c-1.7,0-2.6-.4-2.6-1.1a.3.3,0,0,0-.6,0c0,1-.1,2.5-.3,4.4s-.3,3.5-.4,4.4h.6c.3-2.6,1-4.4,1.9-5.4a6.2,6.2,0,0,1,4.6-1.5l3.8.2a1.9,1.9,0,0,1,1.4.7,4.5,4.5,0,0,1,.4,2.3V28.7A4.7,4.7,0,0,1,279,31a1.6,1.6,0,0,1-1.4.9,13.1,13.1,0,0,1-3.3.3c-.1,0-.1.1-.1.3s0,.3.1.3h12.9a.5.5,0,0,0,0-.6,13.1,13.1,0,0,1-3.3-.3,1.6,1.6,0,0,1-1.4-.9,4.5,4.5,0,0,1-.4-2.3V5.6a4.3,4.3,0,0,1,.4-2.3,1.8,1.8,0,0,1,1.4-.8l3.7-.2a7,7,0,0,1,3.6.7,3.6,3.6,0,0,1,1.9,2.1,11.1,11.1,0,0,1,.5,4.1h.7c0-1.2,0-2.8.1-4.7s.2-3.4.3-4.3A.2.2,0,0,0,294.5,0Z" style="fill:#ffffff;"/><path d="M324.4,3.1A15.5,15.5,0,0,0,316,.9a19,19,0,0,0-8.3,1.9A15,15,0,0,0,301,8.3a14.6,14.6,0,0,0-2.6,8.9,17.3,17.3,0,0,0,1.9,8.1,14.7,14.7,0,0,0,5.7,5.9,15.4,15.4,0,0,0,8.3,2.2,17.6,17.6,0,0,0,8.7-2.2,17.9,17.9,0,0,0,6.5-6,15.7,15.7,0,0,0,2.4-8.4,16.8,16.8,0,0,0-2-7.8A15.6,15.6,0,0,0,324.4,3.1ZM327,25.9a11.6,11.6,0,0,1-4.5,4.8,12.8,12.8,0,0,1-6.4,1.7,13.6,13.6,0,0,1-7.6-2.3,14.6,14.6,0,0,1-5.1-6.1,20.1,20.1,0,0,1-1.8-8.6c0-4.1,1.1-7.4,3.2-9.8S310,2,313.9,2a14.5,14.5,0,0,1,7.8,2.1,12.9,12.9,0,0,1,5.1,5.7,19.2,19.2,0,0,1,1.9,8.4A16.8,16.8,0,0,1,327,25.9Z" style="fill:#ffffff;"/><path d="M393.2,1.5h-9.5c-.1,0-.2.1-.2.3s.1.3.2.3a8.3,8.3,0,0,1,3.1.4,1.3,1.3,0,0,1,.9,1.3,2.7,2.7,0,0,1-.4,1.4L377.7,29l-6.5-14L375,5.5a6,6,0,0,1,2-2.7,5.2,5.2,0,0,1,2.9-.7.4.4,0,0,0,.1-.3.4.4,0,0,0-.1-.3h-7.8c-.1,0-.1.1-.1.3s0,.3.1.3a4.2,4.2,0,0,1,1.8.3,1.1,1.1,0,0,1,.6,1.1,5.1,5.1,0,0,1-.5,1.7l-3.4,8.5-4-8.6a6.6,6.6,0,0,1-.8-2.3.5.5,0,0,1,.4-.6h1.4c.1,0,.1-.1.1-.3s0-.3-.1-.3h-8.1c-.1,0-.2.1-.2.3s.1.3.2.3a3.6,3.6,0,0,1,2.5.8,7.8,7.8,0,0,1,1.8,2.7L369,17.1,364.2,29,353.1,5.1a3.3,3.3,0,0,1-.4-1.4,1.2,1.2,0,0,1,.8-1.3,6.7,6.7,0,0,1,2.3-.3c.1,0,.2-.1.2-.3s-.1-.3-.2-.3H346c-.1,0-.2.1-.2.3s.1.3.2.3a3.6,3.6,0,0,1,2.5.8,6.6,6.6,0,0,1,1.8,2.7l12.4,27.2a.8.8,0,0,0,.6.2c.3,0,.5-.1.5-.2l5.8-14.4,6.6,14.4a.8.8,0,0,0,.6.2c.3,0,.5-.1.5-.2l11-27.3a6.8,6.8,0,0,1,2-2.7,5.2,5.2,0,0,1,2.9-.7c.1,0,.1-.1.1-.3S393.3,1.5,393.2,1.5Z" style="fill:#ffffff;"/><path d="M416.9,25.4c-.2-.1-.3,0-.3.1a9.2,9.2,0,0,1-1.9,4.6,4.1,4.1,0,0,1-3.4,1.7h-4.6a9.8,9.8,0,0,1-2.8-.2,1.9,1.9,0,0,1-1.2-.9,4.3,4.3,0,0,1-.4-2.2V17h6.5a5.1,5.1,0,0,1,3.4.9,4.3,4.3,0,0,1,.9,3.1c0,.1.1.1.3.1s.3,0,.3-.1V18.7a12.8,12.8,0,0,1-.1-2.2v-4h-.6a3.4,3.4,0,0,1-.9,2.7,5.1,5.1,0,0,1-3.2.8h-6.7V5.8a4.3,4.3,0,0,1,.4-2.2,1.4,1.4,0,0,1,1.2-.9,9.4,9.4,0,0,1,2.8-.3h3.5a4.5,4.5,0,0,1,3.5,1.5A6,6,0,0,1,415.1,8h.5V1.9c0-.3-.1-.4-.4-.4H395.2c-.1,0-.1.1-.1.3s0,.3.1.3a11.1,11.1,0,0,1,2.9.2,1.8,1.8,0,0,1,1.2,1,4.3,4.3,0,0,1,.4,2.2V28.7a4.7,4.7,0,0,1-.4,2.3,1.4,1.4,0,0,1-1.2.9,10.2,10.2,0,0,1-2.9.3c-.1,0-.1.1-.1.3s0,.3.1.3h20.7l.7-.2c.1-.1.1-.3.1-.6a46.2,46.2,0,0,1,.5-6.5C417.2,25.4,417.1,25.4,416.9,25.4Z" style="fill:#ffffff;"/><path d="M436,15.1a10,10,0,0,0,4.2-2.8A6.9,6.9,0,0,0,441.8,8a6.3,6.3,0,0,0-2-4.8c-1.3-1.3-3.4-1.9-6.2-1.9l-2.7.2H422c-.1,0-.1.1-.1.3s0,.3.1.3a11.1,11.1,0,0,1,2.9.2,1.9,1.9,0,0,1,1.3,1,6.1,6.1,0,0,1,.3,2.2V28.7a6.7,6.7,0,0,1-.3,2.3,1.8,1.8,0,0,1-1.3.9,10.5,10.5,0,0,1-3,.3.5.5,0,0,0,0,.6h13.3a9.5,9.5,0,0,0,4.8-1.2,8.8,8.8,0,0,0,3.5-3.4,9.9,9.9,0,0,0,1.3-4.9,7.8,7.8,0,0,0-2.4-5.8A10,10,0,0,0,436,15.1Zm-6.9-9.5a7.3,7.3,0,0,1,.3-2.5,1.7,1.7,0,0,1,1-.9,5.9,5.9,0,0,1,2.1-.2c2.2,0,3.9.5,5,1.7A7.1,7.1,0,0,1,439,8.3a6.8,6.8,0,0,1-1.8,5c-1.2,1.3-3.1,1.9-5.7,1.9h-2.4ZM440,30.3c-1.2,1.3-3,1.9-5.5,1.9a14.6,14.6,0,0,1-3.4-.3,2.4,2.4,0,0,1-1.6-1.1,5.6,5.6,0,0,1-.4-2.1V16.2h4.1a8.7,8.7,0,0,1,6.3,2.5,8.3,8.3,0,0,1,2.4,6.2A7.8,7.8,0,0,1,440,30.3Z" style="fill:#ffffff;"/><path d="M465.4,18.4l-4.1-2.6a32.5,32.5,0,0,1-3.8-2.4,9.1,9.1,0,0,1-2.4-2.4,6.5,6.5,0,0,1-.9-3.5,6.8,6.8,0,0,1,1.4-4.2c.9-1.2,2.4-1.7,4.4-1.7s3.9.6,5,2a8.3,8.3,0,0,1,2,4.7c0,.1.1.2.3.2s.3-.1.3-.2L467.1,3a.9.9,0,0,0-.7-.9A15.4,15.4,0,0,0,460.7.9a11.3,11.3,0,0,0-4.5.9,8.3,8.3,0,0,0-3.3,2.6,7.5,7.5,0,0,0-1.3,4.3,8,8,0,0,0,1,3.8,9.9,9.9,0,0,0,2.4,2.6c.9.7,2.2,1.5,3.8,2.5a31.3,31.3,0,0,1,3.8,2.5,9.3,9.3,0,0,1,2.5,2.7,8.1,8.1,0,0,1,1,3.9c0,2.1-.6,3.6-1.9,4.5a6.7,6.7,0,0,1-4.4,1.5,7.5,7.5,0,0,1-6-2.6,11.7,11.7,0,0,1-2.6-6l-.3-.2c-.2.1-.3.1-.3.3h0l.8,6.5a3.5,3.5,0,0,0,.1.6l.3.4a17.1,17.1,0,0,0,3.5,1.3,12.7,12.7,0,0,0,3.4.4,12.8,12.8,0,0,0,5.5-1.1,8.2,8.2,0,0,0,3.5-3.1,7.9,7.9,0,0,0,1.1-4.3,6.5,6.5,0,0,0-1-3.8A10.5,10.5,0,0,0,465.4,18.4Z" style="fill:#ffffff;"/><path d="M481.5,3.4a2.2,2.2,0,0,1,1.3-1,10.2,10.2,0,0,1,2.9-.3c.1,0,.1-.1.1-.3s0-.3-.1-.3H474c-.1,0-.2.1-.2.3s.1.3.2.3a11.1,11.1,0,0,1,2.9.2,2.2,2.2,0,0,1,1.3,1,6.1,6.1,0,0,1,.3,2.2V28.7a6.7,6.7,0,0,1-.3,2.3,1.8,1.8,0,0,1-1.3.9,10.2,10.2,0,0,1-2.9.3c-.1,0-.2.1-.2.3s.1.3.2.3h11.7c.1,0,.1-.1.1-.3s0-.3-.1-.3a9.7,9.7,0,0,1-2.9-.3,1.8,1.8,0,0,1-1.3-.9,6.3,6.3,0,0,1-.3-2.3V5.6A6.1,6.1,0,0,1,481.5,3.4Z" style="fill:#ffffff;"/><path d="M517.8,0c-.2,0-.3.1-.3.2a1.8,1.8,0,0,1-1.1,1,9.1,9.1,0,0,1-2.7.3H494c-1.8,0-2.7-.4-2.7-1.1a.3.3,0,1,0-.6,0c0,1-.1,2.5-.2,4.4s-.4,3.5-.5,4.4h.6c.3-2.6,1-4.4,2-5.4s2.5-1.5,4.6-1.5l3.7.2c.7.1,1.2.3,1.4.7a4.5,4.5,0,0,1,.4,2.3V28.7a6.7,6.7,0,0,1-.3,2.3,2,2,0,0,1-1.5.9,13.1,13.1,0,0,1-3.3.3.5.5,0,0,0,0,.6h12.9c.1,0,.1-.1.1-.3s0-.3-.1-.3a13.1,13.1,0,0,1-3.3-.3,1.6,1.6,0,0,1-1.4-.9,5.9,5.9,0,0,1-.4-2.3V5.6a5.5,5.5,0,0,1,.4-2.3,2,2,0,0,1,1.5-.8l3.6-.2a7.6,7.6,0,0,1,3.7.7,3.5,3.5,0,0,1,1.8,2.1,10.7,10.7,0,0,1,.6,4.1h.6c0-1.2,0-2.8.1-4.7s.2-3.4.3-4.3S518,0,517.8,0Z" style="fill:#ffffff;"/><path d="M543.7,25.4c-.2-.1-.3,0-.3.1a10.1,10.1,0,0,1-1.8,4.6,4.3,4.3,0,0,1-3.5,1.7h-4.6a10.2,10.2,0,0,1-2.8-.2,1.9,1.9,0,0,1-1.2-.9,6.1,6.1,0,0,1-.3-2.2V17h6.4a5,5,0,0,1,3.4.9,4.2,4.2,0,0,1,1,3.1c0,.1.1.1.3.1s.3,0,.3-.1V12.5h-.6a3.4,3.4,0,0,1-.9,2.7,5.1,5.1,0,0,1-3.2.8h-6.6V5.8a6.1,6.1,0,0,1,.3-2.2,1.4,1.4,0,0,1,1.2-.9,9.9,9.9,0,0,1,2.8-.3H537a4.6,4.6,0,0,1,3.6,1.5A5.9,5.9,0,0,1,541.9,8h.6V1.9c0-.3-.2-.4-.5-.4H522a.4.4,0,0,0-.1.3.4.4,0,0,0,.1.3,10.7,10.7,0,0,1,2.9.2,1.9,1.9,0,0,1,1.3,1,6.1,6.1,0,0,1,.3,2.2V28.7a6.7,6.7,0,0,1-.3,2.3,1.6,1.6,0,0,1-1.3.9,9.7,9.7,0,0,1-2.9.3.5.5,0,0,0,0,.6h20.8a.7.7,0,0,0,.8-.8,46.3,46.3,0,0,1,.4-6.5C544,25.4,543.9,25.4,543.7,25.4Z" style="fill:#ffffff;"/><path d="M592.5,16.5l-5.9-2.3h-.1l1.9,3.1H552v1h36.4l-1.9,3.1h.1l5.9-2.4,6.1-1.3Z" style="fill:#ffffff;"/></svg>